<svg width="20" height="20" viewBox="0 0 20 20" fill="none" xmlns="http://www.w3.org/2000/svg">
<path d="M9.99731 6.66537C8.16111 6.66537 6.66262 8.16385 6.66262 10.0001C6.66262 11.8363 8.16111 13.3347 9.99731 13.3347C11.8335 13.3347 13.332 11.8363 13.332 10.0001C13.332 8.16385 11.8335 6.66537 9.99731 6.66537ZM19.9989 10.0001C19.9989 8.61915 20.0114 7.25075 19.9338 5.87235C19.8563 4.27129 19.4911 2.85036 18.3203 1.67959C17.147 0.50632 15.7286 0.143582 14.1275 0.0660309C12.7466 -0.01152 11.3782 0.00098824 9.99981 0.00098824C8.61891 0.00098824 7.25051 -0.01152 5.8721 0.0660309C4.27105 0.143582 2.85012 0.508822 1.67935 1.67959C0.506076 2.85286 0.143338 4.27129 0.0657868 5.87235C-0.0117642 7.25325 0.000744099 8.62165 0.000744099 10.0001C0.000744099 11.3785 -0.0117642 12.7494 0.0657868 14.1278C0.143338 15.7288 0.508578 17.1498 1.67935 18.3205C2.85262 19.4938 4.27105 19.8565 5.8721 19.9341C7.25301 20.0116 8.62141 19.9991 9.99981 19.9991C11.3807 19.9991 12.7491 20.0116 14.1275 19.9341C15.7286 19.8565 17.1495 19.4913 18.3203 18.3205C19.4936 17.1473 19.8563 15.7288 19.9338 14.1278C20.0139 12.7494 19.9989 11.381 19.9989 10.0001ZM9.99731 15.1309C7.15795 15.1309 4.86644 12.8394 4.86644 10.0001C4.86644 7.16069 7.15795 4.86919 9.99731 4.86919C12.8367 4.86919 15.1282 7.16069 15.1282 10.0001C15.1282 12.8394 12.8367 15.1309 9.99731 15.1309ZM15.3383 5.85734C14.6754 5.85734 14.14 5.32198 14.14 4.65905C14.14 3.99611 14.6754 3.46076 15.3383 3.46076C16.0013 3.46076 16.5366 3.99611 16.5366 4.65905C16.5368 4.81647 16.5059 4.97237 16.4458 5.11785C16.3856 5.26332 16.2974 5.3955 16.1861 5.50681C16.0748 5.61812 15.9426 5.70638 15.7971 5.76652C15.6516 5.82667 15.4957 5.85753 15.3383 5.85734Z" fill="#87988D"/>
</svg>
