<svg width="20" height="20" viewBox="0 0 20 20" fill="none" xmlns="http://www.w3.org/2000/svg">
<path d="M10 6C8.3431 6 7 6.89543 7 8C7 9.1046 8.3431 10 10 10C11.6569 10 13 10.8954 13 12C13 13.1046 11.6569 14 10 14V6ZM10 6C11.1104 6 12.0799 6.4022 12.5987 7L10 6ZM10 6V5V6ZM10 6V14V6ZM10 14V15V14ZM10 14C8.8896 14 7.92008 13.5978 7.40137 13L10 14ZM19 10C19 14.9706 14.9706 19 10 19C5.02944 19 1 14.9706 1 10C1 5.02944 5.02944 1 10 1C14.9706 1 19 5.02944 19 10Z" stroke="#24956C" stroke-width="2" stroke-linecap="round" stroke-linejoin="round"/>
</svg>
