<svg width="22" height="22" viewBox="0 0 22 22" fill="none" xmlns="http://www.w3.org/2000/svg">
<path opacity="0.4" fill-rule="evenodd" clip-rule="evenodd" d="M15.2128 1H18.4794C19.8309 1 20.9273 2.1059 20.9273 3.47018V6.7641C20.9273 8.12735 19.8309 9.23429 18.4794 9.23429H15.2128C13.8603 9.23429 12.7639 8.12735 12.7639 6.7641V3.47018C12.7639 2.1059 13.8603 1 15.2128 1Z" stroke="#3A413D" stroke-width="1.5" stroke-linecap="round" stroke-linejoin="round"/>
<path fill-rule="evenodd" clip-rule="evenodd" d="M3.37617 1H6.64174C7.99428 1 9.09066 2.1059 9.09066 3.47018V6.7641C9.09066 8.12735 7.99428 9.23429 6.64174 9.23429H3.37617C2.02362 9.23429 0.927246 8.12735 0.927246 6.7641V3.47018C0.927246 2.1059 2.02362 1 3.37617 1Z" stroke="#3A413D" stroke-width="1.5" stroke-linecap="round" stroke-linejoin="round"/>
<path fill-rule="evenodd" clip-rule="evenodd" d="M3.37617 12.7657H6.64174C7.99428 12.7657 9.09066 13.8716 9.09066 15.237V18.5299C9.09066 19.8941 7.99428 21 6.64174 21H3.37617C2.02362 21 0.927246 19.8941 0.927246 18.5299V15.237C0.927246 13.8716 2.02362 12.7657 3.37617 12.7657Z" stroke="#3A413D" stroke-width="1.5" stroke-linecap="round" stroke-linejoin="round"/>
<path fill-rule="evenodd" clip-rule="evenodd" d="M15.2128 12.7657H18.4794C19.8309 12.7657 20.9273 13.8716 20.9273 15.237V18.5299C20.9273 19.8941 19.8309 21 18.4794 21H15.2128C13.8603 21 12.7639 19.8941 12.7639 18.5299V15.237C12.7639 13.8716 13.8603 12.7657 15.2128 12.7657Z" stroke="#3A413D" stroke-width="1.5" stroke-linecap="round" stroke-linejoin="round"/>
</svg>
